<?xml version="1.0" encoding="UTF-8"?>
<svg id="_レイヤー_1" data-name="レイヤー 1" xmlns="http://www.w3.org/2000/svg" viewBox="0 0 5419.75 1433.64">
  <defs>
    <style>
      .cls-1, .cls-2 {
        fill: #f7f8f8;
      }

      .cls-1, .cls-3 {
        stroke: #231815;
        stroke-miterlimit: 10;
      }

      .cls-4 {
        font-family: CenturyGothic-Bold, 'Century Gothic';
        font-size: 218.14px;
        font-weight: 700;
      }

      .cls-4, .cls-5 {
        fill: #c9caca;
      }

      .cls-4, .cls-5, .cls-6, .cls-7 {
        isolation: isolate;
      }

      .cls-5, .cls-7 {
        font-family: CenturyGothic, 'Century Gothic';
        font-size: 1189.83px;
      }

      .cls-7 {
        fill: #215187;
      }

      .cls-3 {
        fill: #fff;
      }
    </style>
  </defs>
  <g class="cls-6">
    <text class="cls-7" transform="translate(1103.87 1022.06) scale(.84 1)"><tspan x="0" y="0">META</tspan></text>
  </g>
  <g class="cls-6">
    <text class="cls-5" transform="translate(3855.16 1022.06) scale(.84 1)"><tspan x="0" y="0">lab</tspan></text>
  </g>
  <g class="cls-6">
    <text class="cls-4" transform="translate(1283.14 1291.94) scale(.91 1)"><tspan x="0" y="0">EVALUATION</tspan></text>
    <text/>
  </g>
  <g class="cls-6">
    <text class="cls-4" transform="translate(2770.83 1291.94) scale(.91 1)"><tspan x="0" y="0">TRAINING</tspan></text>
  </g>
  <g class="cls-6">
    <text class="cls-4" transform="translate(3953.72 1291.94) scale(.91 1)"><tspan x="0" y="0">ANALYSIS</tspan></text>
  </g>
  <rect class="cls-2" x="261.87" y="908.42" width="189.38" height="16.66"/>
  <rect class="cls-2" x="926.16" y="1051.99" width="16.66" height="189.38" transform="translate(-537.12 996.64) rotate(-45)"/>
  <rect class="cls-2" x="611.58" y="568.6" width="189.38" height="16.66" transform="translate(1283.2 -129.34) rotate(90)"/>
  <circle class="cls-1" cx="706.27" cy="916.75" r="255.02"/>
  <circle class="cls-1" cx="1086" cy="1302.46" r="130.68"/>
  <circle class="cls-3" cx="706.27" cy="355.93" r="130.68"/>
  <text/>
  <circle class="cls-1" cx="131.18" cy="916.75" r="130.68"/>
</svg>