<?xml version="1.0" encoding="UTF-8"?>
<svg id="_レイヤー_1" data-name="レイヤー 1" xmlns="http://www.w3.org/2000/svg" viewBox="0 0 6453.54 1286.22">
  <defs>
    <style>
      .cls-1 {
        fill: #20548d;
      }
    </style>
  </defs>
  <path class="cls-1" d="M1164.79,0l-.02,610.05c-42.19,317.02-306.23,548.23-581.98,676.17C305.2,1156.25,37.61,921.83.02,600.55L0,0C388.22-.02,776.57.05,1164.79,0ZM1136.2,28.55H28.58l.02,572c38.32,303.95,291.4,531,555.99,652.89,260.8-123.95,510.98-344.9,551.58-645.75l.02-579.13Z"/>
  <path d="M5078.38,577.97l75.04,197.4,73.76-195.09c1.86-2.39,4.45-2.13,7.08-2.45,13.42-1.59,51.18-1.61,64.56.02,2.52.31,5.52-.07,7.19,2.33l.82,9.48c-6.45,3.73-28.27,2.78-30.38,8.9-1.18,3.43-2.52,16.37-2.85,20.93-3.28,44.79-2.61,112.01-.02,157.19.48,8.35,2.84,16.22,2.75,24.61l28.38,6.15,2.34,10.75h-102.43l.12-11.78,26.71-4.84c3.95-2.05,6.27-28.23,6.62-34.41,2.87-51.77-2.32-106.22-.12-158.25l-84.44,209.46-22.49-.4-80.03-209.09,1.04,191.23,31.1,6.22.02,11.87h-83.37l.12-11.78,27.93-5.41c2.01-1.98,5.12-34.88,5.42-40.97,2.07-43.01,3.68-113.18-2.65-154.56-2.37-15.5-16.83-10.22-28.53-14.32l-2.28-13.18h78.61Z"/>
  <path d="M1467.3,178.39l72.67,195.05,76.2-195.05h77.41l-.12,11.78-28.52,6.48c-6.43,66.29-8.94,137.04,1.2,202.99l25.16,5.79,2.28,13.18h-100.04l1.03-12.05,25.24-5.71c3.48-2.47,6.78-33.82,7.17-40.41,2.98-50.69-1.44-102.82-1.29-153.53l-82.14,210.56c-4.21,2.53-20.8,2.83-23.66-2.62l-81.17-205.52,2.68,188.75c1.93,5.93,24.15,5.2,30.44,8.84l-3.37,11.7h-79.8l2.28-13.18,25.16-5.79c9.84-66,7.9-136.65,1.17-202.92l-28.5-6.55-.12-11.78h78.61Z"/>
  <path d="M4130.34,556.57c1.88,1.92-4.55,45.72-4.85,53.41-1.91,48.94-3.26,113.49.13,161.8.71,10.16,4.2,21.57,4.94,31.93l23.58,2.62-.3,11.51-59.2,7.46,3.58-30.89c-35.33,50.52-101.99,39.84-116.36-21.78-17.59-75.43,33.46-139.86,112.78-123.3l-2.7-68.67-30.62-5.11.1-11.73,68.93-7.26ZM4055.88,664.17c-58.97,10.01-59.01,135.61-2.87,137.48,14.45.48,39.74-12.39,41.74-27.33,4.07-30.47-2.96-70.48-.51-102.01-2.94-8.65-30.21-9.52-38.36-8.14Z"/>
  <path d="M2125.92,247.37c.84.03,5.07,4.73,5.97,1.18.38-23.07.55-46.03-4.67-68.58l-28.37-6.67-.34-11.57,69.08-4.73c-1.69,12.92-4.33,28.69-4.85,41.51-2.16,53.19-3.87,126.12.12,178.46.57,7.41,2.95,15.2,3.45,22.72l24.9,7.23-.05,7.84c-.87,3.25-3.17,3.11-5.8,3.74-16.67,4.02-36.61,2.6-53.47,7.24l3.57-33.28c-70.67,83.53-145.28-4.34-112.58-91.01,7.58-20.08,37.51-54.09,60.17-54.09,14.23,0,28.67-.55,42.88,0ZM2131.87,268.77c-60.91-24.18-88.1,24.37-83.33,79.64,4.55,52.74,48.63,70.15,83.33,28.58v-108.22Z"/>
  <path d="M1937.74,247.37c.84.03,5.07,4.73,5.97,1.18.38-23.07.55-46.03-4.67-68.58l-28.37-6.67-.34-11.57,66.72-4.76c-.3,8.27.45,16.67-.04,24.96-3.46,59.32-6.83,136.06-2.33,195.03.57,7.41,2.95,15.2,3.45,22.72l24.9,7.23-.05,7.84c-.87,3.25-3.17,3.11-5.8,3.74-16.67,4.02-36.61,2.6-53.47,7.24l3.57-33.28c-69.15,82.23-143.89-1.85-114.29-87.96,7.22-21,38.28-57.14,61.87-57.14,14.23,0,28.67-.55,42.88,0ZM1943.69,268.77c-63.54-25.18-89.75,27.98-83.11,84.18,5.91,50.05,51.92,63.39,83.11,24.04v-108.22Z"/>
  <path d="M2524.91,156.97l-2.37,116.56c42.04-46.83,107.63-31.42,114.29,34.51,7.59,75.18-41.58,125.52-117.22,117.05-6.21-.69-28.07-4.59-30.05-10.43l-.69-222.89-2.41-13.05c-12.69-4.12-32.96,2.1-28.26-16.99l66.72-4.76ZM2555.23,271.72c-8.88,1.44-30.96,13.14-32.66,22.09,1.48,16.51-3.81,104.42,4.67,111.76,21.68,7.62,43.68,5.38,59.64-11.87,29.61-32,26.57-131.41-31.65-121.97Z"/>
  <path d="M3625.37,637.42l-18.74-.3-8.74-37.66c-25.56-17.43-78.27-16.35-90.9,16.1-18.51,47.57,46.68,57.68,75.6,72.9,19.63,10.34,39.85,25.7,44.07,48.75,15.52,84.74-86.04,104.83-146.27,75.89l-2.72-56.76c29.94-8.46,16.89,29.13,26.81,39.86,8.35,9.03,40.45,11.22,52.37,9.48,36.4-5.34,59.29-45.11,29.19-73.09-33.42-31.07-110.85-25.29-110.24-91.59.66-71.48,88.29-82.09,140.78-60.22l3.58,3.56,5.2,53.08Z"/>
  <path d="M3834.99,649.32c2.01,10.92-2.15,21.88-2.49,32.02-.74,22.36-3.38,75.43.64,94.7,3.33,15.97,18.11,26.1,34,25.7,10.11-.25,31.46-9.99,36.67-18.28,8.52-13.57.06-92.18.24-112.71l-26.33-3.44-2.25-13.22,66.71-4.77c1.75,9.4-2.18,18.47-2.49,27.26-1.09,31.12-3.34,82.06.38,111.6.43,3.4,2.07,12.98,4.4,14.63l23.86,3.52-.3,11.51-61.58,7.47,4.73-30.9c-12.04,13.17-25.22,28.11-44.25,30.71-95.09,13.02-59.28-98.41-70.1-154.36l-26.31-3.46-2.25-13.22,66.72-4.77Z"/>
  <path d="M3410.99,418.62l2.28-13.18c24.47-2.57,24.69-4.96,26.4-28.34,2.45-33.46.2-72.89-3.51-106.09l-27.63-5.7-2.17-10.66,64.18-7.27c1.47,8.65-2.08,16.7-2.48,24.92-.13,2.6-1.29,6.64,2.45,5.99,22.94-44.92,101.07-44.16,107.23,13.08,3.77,35-5.21,73.94,4.64,109.03l26.11,6.53-3.37,11.7h-82.18c-4.68-21.86,17.38-8.72,20.8-23.11,4.68-19.67,6.02-87.01-1.28-104.6-14.13-34.07-67.65-16.88-71.88,5.28-2.56,13.42-1.12,55.91-.15,71.4.66,10.56,3.92,22.03,4.83,32.71l19.19,5.15,2.28,13.18h-85.75Z"/>
  <path d="M2908.39,818.2l2.34-10.74,23.99-5.04c6.1-16.84,7.33-124.36-.59-131.23l-25.9-3.86-2.23-13.24,64.32-4.75-4.75,28.51h4.72c14.96-32.24,68.5-42.05,93.05-15.54,26.93,29.09,7.06,100.42,16.89,137.73,1.78,5.44,19.97,5.78,25.85,6.29l.02,11.87h-85.75l.12-11.78c15.34-1.92,20.5.32,23.05-16.22,2.78-18,2.76-68.91.65-87.36-3.01-26.25-27.21-36.39-50.97-27.11-6.37,2.49-21.49,13.03-22.82,20.03-2.79,14.71-1.33,64.01-.15,80.91.32,4.5,3.29,25.27,5.37,26.78l18.42,2.98.12,11.78h-85.75Z"/>
  <path d="M5499.99,818.2l.13-11.77,22.1-2.89,3.63-3.51c3.93-41.98,4.95-85.22-.71-127.06l-29.6-7.32-.34-11.57,64.34-4.75-1.21,28.54c26.99-43.3,102.02-43.29,108.41,15.46,1.68,15.46-3.1,105.27,5.1,110.27l23.51,3.87,2.34,10.74h-88.13c-5.16-16.8,19.27-11.79,21.57-15.8,3.54-28.21,14.52-104.91-9.55-123.45-19.12-14.73-59.17-1.07-62.17,21.39-2.15,16.12-1.07,52,.03,69.2.71,11.07,4.11,23.01,5.07,34.18l21.1,2.71.13,11.77h-85.75Z"/>
  <path d="M2136.63,818.2l.13-11.77,22.1-2.89,3.63-3.51c3.93-41.98,4.95-85.22-.71-127.06l-29.6-7.32-.34-11.57,64.34-4.75-1.21,28.54c26.99-43.3,102.02-43.29,108.41,15.46,3.8,34.99-5.21,73.98,4.62,109.1l23.99,5.04,2.34,10.74h-88.13c-5.16-16.8,19.29-11.8,21.57-15.79,3.87-28.25,13.92-102.61-8.34-122.29-11.23-9.93-32.42-9.29-45.04-1.89-4.49,2.63-17.27,15.24-18.17,19.91-2.56,13.36-1.12,55.96-.15,71.4.67,10.63,4.03,22.08,4.78,32.85l21.39,4.04.13,11.77h-85.75Z"/>
  <path d="M1512.56,818.2l.02-11.87c25.96-.69,26.86-2.7,28.66-27.28,2.45-33.43.22-72.9-3.54-106.07l-29.68-7.22.81-9.47,63.29-6.98-1.21,28.54c27.1-43.35,102.46-43.15,108.36,15.5,3.61,35.94-4.74,73.49,4.66,109.06l26.31,3.91.02,11.87h-85.75l.26-11.64,18.37-3.03c5.67-3.64,6.31-81.95,5.16-93.53-2.27-22.98-12.26-37.56-36.93-37.05-13.45.28-36.68,11.94-39.21,25.19s-1.22,56.53-.14,71.39c1.43,19.76,1.61,39.01,26.18,36.88l.12,11.78h-85.75Z"/>
  <path d="M4180.38,247.36c.13,36.34-13.59,99.23-.53,132.53,13.55,34.54,68.95,18.93,72.03-7.6,2.11-18.13,1.18-52.59.05-71.5-.33-5.55-3.01-31.21-6.52-32.05l-24.63-3.44-2.17-10.66,68.95-7.26c-4.67,50.86-9.52,103.77.46,154.15l24.71,5.04,1.04,12.05-61.95,4.76,2.37-28.54c-16.63,21-36.91,33.75-64.87,30.29-61.61-7.61-41.64-85.72-44.57-129.1-.4-5.87-2.05-25.38-6.45-26.86l-24.7-3.88-2.4-9.53,69.18-8.41Z"/>
  <path d="M2715.46,247.36c-.12,36.2-13.54,99.36-.53,132.53,13.55,34.54,68.95,18.93,72.03-7.6,2.11-18.13,1.18-52.59.05-71.5-.33-5.55-3.01-31.21-6.52-32.05l-24.63-3.44-2.17-10.66,68.94-7.25c-3.9,20.73-9.51,145.43.46,154.14l23.51,3.87,2.25,13.22-61.95,4.76,2.37-28.54c-17.31,20.88-36.23,33.83-64.87,30.29-72.94-9.01-30.28-111.6-51.1-156.4l-24.63-3.44-2.4-9.53,69.18-8.41Z"/>
  <path d="M4873.53,254.5c7.85-59.91,47.7-112.55,114.34-95.12l-5.93,30.92c-2.22,3.42-3.19,2.01-6.05,1.31-8.82-2.16-16.41-7.51-27.33-8.43-45.3-3.85-41.72,38.23-46.44,71.32h38.11v14.27h-40.49c-10.79,49.77-17.1,103.11-29.75,152.25-9.47,36.77-34.51,80.12-76.52,85.33-38.38,4.77-32.51-.9-27.11-33.03,33.63,11.53,55.43,13.87,67.4-24.27,9.91-31.57,34.38-143.75,35.09-174.35.05-1.99-.02-3.98-.07-5.95l-30.99.02v-14.28h35.74Z"/>
  <path d="M2803.01,647.56c124.43-17.01,123.28,179.54,11.18,180.23-102.32.63-105.3-167.36-11.18-180.23ZM2802.94,664.14c-39.86,8.14-38.06,103.03-19.45,130.12,18.78,27.31,55.98,20.07,69.47-8.81,10.28-22.01,10.4-66.95,3.16-89.88-8.09-25.64-26.31-36.92-53.19-31.43Z"/>
  <path d="M5389.84,647.56c132.49-18.12,119.36,206.42-9.48,177.11-83.54-19-77.9-165.16,9.48-177.11ZM5389.77,664.14c-37.91,7.75-36.28,86.28-27.28,114.15,16.25,50.33,71.84,41.56,82.42-11.52,8.07-40.48,3.67-114.66-55.14-102.63Z"/>
  <path d="M4801.94,818.06l-61.79,7.25,4.73-33.28c-6.7,4.32-9.88,13.73-15.47,19.02-24.8,23.46-74.29,20.15-79.57-18.04-7.67-55.5,48.6-68.68,92.7-67.57,5.57-41.18-20.15-69.17-61.17-50.37-11.16,5.11-13.77,16.75-24.53,1.6,22.12-30.28,82.97-46.67,107.14-11.91,16.68,23.99,6.99,86.15,9.42,116.65,1.91,24.04,3.36,21.56,26.33,26.03l2.21,10.61ZM4742.52,739.71c-23.33-.79-62.11,4.24-62.12,34.49,0,32.97,34.3,30,52.68,11.98,1.56-1.53,9.44-11.22,9.44-11.98v-34.49Z"/>
  <path d="M2500.93,806.43l-1.24,12.03-58.15,6.86,3.57-33.27c-20.78,42.56-92.73,49.43-95.34-7.08-2.25-48.77,53.06-60.31,91.77-59.52,10.23-53.58-34.67-72.31-73-40.63-3.11.56-12.39-7.68-9.36-11.76,24.73-26.37,84.71-43.82,106.67-6.39,12.89,21.99,4.71,73.11,6.55,100.49.4,5.92,3.25,29,5.31,32.76,3.34,6.1,16.48,4.93,23.23,6.52ZM2441.53,739.71c-14.12,0-31.01,1.1-43.62,7.58-31.48,16.17-16.73,65.76,22.32,48.46,4.08-1.81,21.3-16.13,21.3-19.18v-36.87Z"/>
  <path d="M3251.82,803.53l23.36,2.81-.3,11.51c-1.44,2.4-48.79,7.05-55.65,7.52-4.13.28-3.72.31-3.65-3.65.16-10.26,4.96-21.56,4.83-32.06l-20.29,23.71c-31.09,25.26-78.35,12.06-77.53-32.03.86-46.14,56.42-56.89,93.09-55.9,9.17-55.26-34.55-70.8-75.07-41.02l-8.13-9.79c27.89-36.04,106.41-45.55,113.95,11.76,2.18,16.55-3.48,111.42,5.39,117.13ZM3215.67,739.71c-14.84-.42-33.9,1.18-46.94,9.03-31.09,18.72-10.79,66.65,27.17,46.16,3.08-1.66,19.76-16.98,19.76-18.32v-36.87Z"/>
  <path d="M6352.73,654.08l-2.24,13.23-21.55,4.58,41.65,110.66,39.35-110.58-23.67-6.18,3.37-11.7h63.12c4.73,19.62-13.91,11.63-20.18,19.1-1.61,1.92-11.51,24.51-13.6,29.23-29.72,67.05-49.67,141.43-79.63,208.71-15.01-4.25-32.24-2.22-47.34-4.95-7.15-1.29-8.56-9.71-3.66-13.12,6.32-4.4,28.8-1.64,36.9-8.33,5.34-4.41,29.68-54.25,29.68-60.57-21.49-42.81-34.35-98.42-58.15-139.18-2.09-3.57-5.6-10.68-8.48-12.94-7.07-5.56-21.32-1.17-15.45-15.65l2.46-2.3h77.41Z"/>
  <path d="M3096.57,254.5l-2.34,10.74-21.51,4.75,42.88,110.56c2.65-14.41,40.83-106.63,35.76-111.77l-21.42-2.41-.02-11.87h66.7l-2.35,10.73-17.88,5.93c-34.82,77.26-62.23,158.11-91.99,237.54l-54.48-4.49,1.34-12.13c10.02-4.19,30.64-1.7,37.81-9.36s28.1-51.09,27.7-60.48c-17.13-40.82-31.36-86.14-50.55-125.77-1.85-3.82-13.25-26.25-14.5-27.15-2.63-1.9-12.02-1.43-15.88-3.16l-.25-11.65h80.99Z"/>
  <path d="M6152.65,725.44c-4.01,62.13,41.71,96.15,98.52,66.4l5.87,8.55c-32.07,33.81-94.63,37.08-121.53-4.32-20.9-32.18-19.16-93.99,5.29-124.09,27.43-33.78,89.58-34.92,109.94,6.65,2.95,6.02,14.84,46.81,5.53,46.81h-103.62ZM6226.51,706.4c2.2-59.38-71.33-57.17-71.56-1.19-.02,5.03-.16,3.03,3.58,3.59,7.21,1.07,65.51-.05,67.98-2.4Z"/>
  <path d="M5854.9,725.44c-3.77,61.03,42.52,96.28,98.52,66.4l5.87,8.55c-22.23,24.22-59.26,31.98-90.05,21.33-55.95-19.36-58.46-120.93-19.16-156.98,30.66-28.12,87.22-23.3,104.5,17.06,4.86,11.36,11.52,33.8,3.93,43.64h-103.62ZM5928.73,706.4c.61-62.98-70.9-56.08-71.46,2.39l71.46-2.39Z"/>
  <path d="M1969.9,725.44h-104.81c-6.56,58.51,40.83,97.18,94.52,66.98l7.76,5.87c-7.02,13.34-29.45,25.42-43.91,27.05-72.38,8.19-95.21-41.69-89.29-105.81,9.13-98.88,146.42-97.1,135.73,5.91ZM1936.41,706.28c3.22-62.85-66.72-55.26-71.35,1.28l71.35-1.28Z"/>
  <path d="M4306.62,725.44c-6.1,58.68,40.47,97.13,94.52,66.98,15.74,5.96,4.72,13.83-4.16,19.69-35.33,23.31-88.42,19.07-110.46-20.23-15.18-27.06-14.74-73.99-2.5-102.09,25.39-58.29,112.79-58.67,126.83,6.48.89,4.15,4.69,29.16-.62,29.16h-103.62ZM4380.47,706.4c-2.84-63.32-68.11-55.39-73.85,2.37l73.85-2.37Z"/>
  <path d="M2455.82,323.48h-107.19c-3.49,50.88,25.96,90.75,80.47,74.4,9.53-2.86,15.68-13.25,21.69-1.39,2.01,7.55-18.68,18.98-25.1,21.77-36.32,15.76-81.66,6.65-98.95-31.3-21.08-46.24-10.09-133.28,51.7-139.57,55.06-5.61,75.63,24.8,77.39,76.08ZM2422.47,304.43c-2.57-61.16-66.95-54.9-73.43,1.29.89,5.2,34.54,4.02,41.37,3.58,10.37-.67,21.63-3.78,32.06-4.87Z"/>
  <path d="M4473.35,323.48c-3.49,50.88,25.96,90.75,80.47,74.4,9.53-2.86,15.68-13.25,21.69-1.39,2.01,7.55-18.68,18.98-25.1,21.77-90.44,39.24-134.15-68.43-96.6-136.89,28.11-51.26,110.26-47.87,123.7,15.42.98,4.62,5.1,26.7-.54,26.7h-103.62ZM4547.2,304.43c-1.72-60.94-68.72-54.89-73.27,1.31.92,5.2,34.36,4,41.21,3.56,10.37-.67,21.63-3.78,32.06-4.87Z"/>
  <path d="M4775.29,245.61c67.84-8.34,49.58,96.18,25.42,132.41-23.17,34.75-103.41,79.94-114.79,12.68-9.78-57.78,25.81-137.28,89.37-145.09ZM4758.49,269.29c-19.71,4.53-35.49,42.86-39.09,60.84-3.11,15.57-9.33,67.53,12.45,71.77,50.26,9.77,69.07-85.68,56.47-120.59-4.74-13.14-16.97-14.98-29.83-12.03Z"/>
  <path d="M1488.74,577.97l-2.28,13.18c-8.97,3.47-26.47.07-28.63,11.85-1.16,6.32-2.13,21.16-2.54,28.39-2.28,40.19-1.99,93.08-.02,133.41.56,11.37,3.12,22.96,3.66,34.4l29.68,7.22.13,11.78h-102.43l2.34-10.75,28.31-6.22c.16-6.69,2.33-13.15,2.8-19.8,3.05-43.57,4.27-126.2-.4-168.66-.4-3.59-2.19-15.48-4.35-17.06l-28.49-6.03,3.37-11.7h98.85Z"/>
  <path d="M3387.17,178.39l-.02,11.87-29.79,7.12c-.52,11.45-3.09,23.04-3.65,34.41-1.98,40.32-2.27,93.22.02,133.41.41,7.23,1.38,22.07,2.54,28.39,2.16,11.77,19.66,8.38,28.63,11.85l2.28,13.18h-98.85l-3.37-11.7,28.49-6.03c2.17-1.58,3.96-13.47,4.35-17.06,4.68-42.46,3.46-125.09.4-168.66-.47-6.66-2.64-13.11-2.8-19.8l-28.31-6.22-2.34-10.75h102.43Z"/>
  <path d="M4546.72,654.56l5.23,44.7-16.33-.32c-7.54-17.68-1.94-31.97-25.55-35.14-18.55-2.49-46.26-2.61-46.27,22.39-.01,36.7,74.44,31.53,86.56,68.19,21.47,64.98-60.78,88.55-108,62.66l-4.74-44.03,16.46.23,5.45,27.85c24.76,15.3,81.21,11.57,64.43-29.85-10.51-25.94-81.6-21.54-86.32-66-6.41-60.4,66.32-70.97,109.09-50.68Z"/>
  <path d="M3739.31,254.89l2.79,42.43-16.45-.25-8.58-28.29c-23.71-13.01-71.57-12.06-59.67,26.29,8.4,27.06,79.17,21.97,86.49,65.83,10.46,62.65-65.04,77.22-109.95,55.61l-3.82-43.1,16.67.03,5.33,27.98c21.15,10.85,66.04,13.26,66.18-19.67.17-40.14-89.41-28.48-90.62-83.36-1.23-56.1,73.19-64.78,111.62-43.51Z"/>
  <path d="M2216.43,418.62l-3.37-11.7,25.55-5.39c1.1-.95,4.6-23.35,4.91-27.21,3.67-46.07,3.38-117.56.4-163.91-.29-4.49-3.99-30.4-5.32-31.56l-27.8-5.54-.34-11.57,66.72-4.76.31,241.11,23.6,7.35,2.28,13.18h-86.94Z"/>
  <path d="M3294.28,818.2l.02-11.87,23.88-3.51c3.19-2.26,6.77-29.78,7.17-35.66,2.95-43.71,2.73-108.59,0-152.42-.68-10.87-3.79-22.99-5.35-33.88l-27.95-5.4v-11.63c20.87-1.66,42.13-5.91,62.99-7.3,5.98-.4,3.85,10.88,3.68,15.61-2.41,64.71-7.86,145.24-2.46,209.15.57,6.71,2.75,13.63,3.39,20.4l25.14,4.63.02,11.87h-90.52Z"/>
  <path d="M4864,604.14v49.95h41.68c5.38,3.85,3.4,10.87,3.57,16.65h-45.26v117.73c0,1.32,5.4,8.22,7.19,9.47,15.37,10.69,35.71-5.23,38.03-3.52l4.63,14.02c-21.1,17.24-66.39,30.15-79-2.76-.78-2.04-4.2-16.08-4.2-17.21v-117.73h-28.59c-3.89-19.11,15.4-15.32,28.35-19.26l.36-42.47,33.23-4.87Z"/>
  <path d="M2565.39,604.14v49.95h42.88v16.65h-42.88v117.73c0,15.09,32.35,15.95,41.72,6.55,14.62,9.92,3.35,16.72-7.64,22.72-13.12,7.16-24.98,9.47-40.09,7.65-13.85-1.68-27.34-18.68-27.34-32.16v-122.49h-28.6s.13-14.16.13-14.16l28.22-5.1.36-42.47,33.23-4.87Z"/>
  <path d="M1769.81,604.14v49.95h41.68c5.38,3.85,3.4,10.87,3.57,16.65h-45.26v115.36c0,19.79,33.57,17.52,45.22,8.32l4.63,14.03c-39.1,26.31-78.76,29.45-83.17-27.13-2.78-35.68,1.99-74.57-.02-110.58l-24.66-.35-4.09-5.61c-1.14-12.11,20.57-10.28,28.49-13.3l1.34-40.29,32.25-7.04Z"/>
  <path d="M5759.62,604.14v49.95h45.26v16.65h-45.26v110.6c0,.74,4.2,12.77,5.01,14.02,9.96,15.48,38.46-1.06,40.29.07l6.81,9.71c-14.68,18.06-56.54,30.43-73.6,11.92-1.95-2.11-9.48-17.36-9.48-19.08v-127.25h-28.6s.13-14.16.13-14.16l28.22-5.1.5-42.33,30.71-5Z"/>
  <path d="M3703.98,604.14v49.95h41.68c5.38,3.85,3.4,10.87,3.57,16.65h-45.26v115.36c0,19.46,33.7,18.25,45.21,8.32l4.69,12.75c-16.65,16.39-52.77,27.74-71.45,9.96-2.02-1.92-9.41-12.99-9.41-14.39v-132h-28.6s.12-14.17.12-14.17l28.36-4.96.35-42.47,30.72-4.99Z"/>
  <path d="M3823.07,202.18v52.33h45.26v14.27h-45.26v117.73c0,2.12,8.08,11.66,11.21,12.58,16.75,4.94,31.45-11.23,37.89,2.84,2.74,10.17-29.67,22.71-38.66,23.58-20.72,2.01-38.93-7.73-41.4-29.48-4.37-38.42,3.54-84.11-.33-123.35-2.38-7.26-21.8-2.71-28.26-3.89l-.08-12.94,28.37-6.42.33-42.47,30.95-4.78Z"/>
  <path d="M4378.07,202.18v52.33h45.26v14.27h-45.26v115.36c0,14.54,18.28,17.07,29.66,15.33,8.28-1.27,14.24-10.77,19.44,2.47,2.74,10.17-29.67,22.71-38.66,23.58-19.65,1.89-38.93-8.5-41.46-29.43-4.58-38.03,3.8-84.43-.28-123.4-2.38-7.26-21.8-2.71-28.26-3.89l-.08-12.94,28.37-6.42.33-42.47,30.95-4.78Z"/>
  <path d="M4046.98,202.18v52.33h45.26v14.27h-45.26v112.98c0,.72,4.97,11.75,5.98,13.05,10.85,13.86,36.01-4.06,41.81,3.41,7.02,9.03-7.94,15.89-14.41,19.25-17.77,9.24-39.77,13.85-54.92-2.32-2.8-2.99-9.43-13.61-9.43-16.74v-129.63h-28.59s1.05-12.05,1.05-12.05l27.24-7.29.33-42.47,30.94-4.78Z"/>
  <path d="M2872.66,418.62l2.28-13.18c25.72-2.05,24.8-7.02,26.4-30.72.98-14.45,1.31-95.14-4.61-102.62l-28.8-5.73-.17-10.38,64.44-8.6-2.35,38.04,16.63-20.23c17.01-15,30.53-14.05,52.42-13.05l-7.15,38.05c-7.29.24-13-4.28-20.28-4.84-11.75-.91-36.72,7.26-39.21,20.34-2.33,12.22-1.05,50.21-.15,64.26.62,9.79,3.47,20.63,4.73,30.49l26.48,4.95,2.24,13.23h-92.9Z"/>
  <path d="M1988.95,818.2l.02-11.87,22.15-2.85c6.17-2.75,8.39-26.69,8.89-33.94.84-12.3.07-93.82-5.07-98.59l-26.14-3.64-2.25-13.22,64.31-4.75-4.73,38.04c17.66-24.83,38.94-42.11,71.44-33.28l-9.57,38.04c-13.17-10.62-53.85-3.43-57.09,13.12-2.51,12.84-1.15,56.48-.14,71.41.4,5.87,2.06,25.39,6.45,26.86l27.01,2.77v11.9h-95.29Z"/>
  <path d="M5983.53,818.2l.02-11.87,22.15-2.85c6.17-2.75,8.39-26.69,8.89-33.94.84-12.29.07-93.82-5.07-98.59l-26.14-3.64-2.25-13.22,64.32-4.74-4.73,38.04c17.65-24.82,38.94-42.12,71.44-33.27l-9.56,38.03c-13.17-10.62-53.85-3.43-57.09,13.12-2.53,12.95-1.24,58.75-.14,73.79.41,5.56,1.92,22.95,6.44,24.49l24.71,3.87,2.29,10.79h-95.28Z"/>
  <path d="M1722.17,418.62l2.24-13.23,23.82-3.55c3.19-42.76,5.43-88.38-.94-130.8l-27.59-5.75-2.17-10.66,65.35-7.36,3.6,3.58-.1,149.59,24.05,4.95,2.24,13.23h-90.52Z"/>
  <path d="M4173.22,818.2l.02-11.87,22.17-2.83,3.57-3.57c3.65-15.05,4.91-124.51.34-129.1l-30.65-5.06c-.99-5.95-1.04-10.5,5.73-11.69,13.53-2.38,38.32-4.39,52.33-4.86,3.59-.12,7.24.21,10.81.1l.42,150.61,3.57,3.57,22.17,2.83.02,11.87h-90.52Z"/>
  <path d="M2634.47,818.2l.02-11.87,22.18-2.83c5.11-2,6.02-14.5,6.47-19.7,1.09-12.57,1.44-108.97-2.56-112.97l-26.25-3.52-2.25-13.22,66.72-4.77.36,150.67c1.94,5.61,19.77,5.77,25.81,6.34l.02,11.87h-90.52Z"/>
  <path d="M3895.72,418.62l-3.37-11.7,26.11-6.53c7.27-42.83,6.99-88.54-.37-131.34l-28.33-2.65-.08-10.3c1.16-5.12,59.76-6.81,69.17-8.71-2.06,13.37-4.38,30.52-4.86,43.88-.92,25.49-1.7,58.31,0,83.44,1.6,23.69.68,28.67,26.4,30.72l2.28,13.18h-86.94Z"/>
  <path d="M2674.4,559.38c31.14-3.81,34.25,45.67,3.93,46.98-29.15,1.26-33.83-43.33-3.93-46.98Z"/>
  <path d="M3919.09,199.05c-23.3-21.75,13.03-57.28,33.94-32.69,19.79,23.28-14.32,51.01-33.94,32.69Z"/>
  <path d="M4197.78,598.65c-18.04-19.46,10.13-53.1,32.75-33.9,23.99,20.36-10.18,58.25-32.75,33.9Z"/>
  <path d="M1757.21,159.88c39.8-9.09,38.61,47.88,4.56,44.56-26.11-2.55-26.95-39.44-4.56-44.56Z"/>
  <path class="cls-1" d="M1093.33,71.36l.1,524.55c-15.15,125.12-71.78,243.46-152.54,338.83v-142.71H221.52v137.95c-80.68-96.87-137.36-216.89-150.16-343.59l.1-515.04h1021.87ZM186.63,408.27c132.4,132.13,340.53-55.66,223-200.08-133-163.43-370.02,53.36-223,200.08ZM855.13,394.83v-155.79c0-1.47-9.72-14.27-11.86-16.7-18.61-21.15-50.62-34.06-78.65-34.44v156.98c25.54-.61,50.61,10.47,70.32,26.11l20.19,23.84ZM969.46,187.91c-27.02,3.59-58.17,13.04-77.51,33.21-1.93,2.01-13.01,16.82-13.01,17.93v155.79l19.03-22.62c20.41-16.15,45.53-25.15,71.48-27.33v-156.98ZM740.8,202.18h-23.82v167.68l150.83,88.75,149.29-88.75v-167.68h-23.82v156.98l-125.03,71.19-127.46-74.76v-153.41ZM731.27,478.08l-38.14-1.16c-45.01-100.11-178.04-99.53-221.87.77l-40.12.39v41.62c0,2.64-5.02,13.75-7.12,16.68-15.1,21.02-50.8,20.42-73.87,20.19v35.68h-88.13v95.14h-97.66v26.16h836.07v-26.16h-100.04v-93.95l-3.57-3.57h-82.18v-33.3c-21.86.5-60.6.48-74.89-19.17-2.25-3.09-8.48-17.27-8.48-20.08v-39.24ZM973.04,732.57H188.18c-3.09,13.59,5.69,13.03,12.06,20.07,6.66,7.36,7.6,15.42,6.99,25.13h21.46c-3.97-46.45,39.67-46.45,35.71,0l25.18-2.24c1.03-14.72.25-31.78,18.82-33.51,15.52,6.36,17.08,20.57,15.55,35.75h26.23c-3.97-46.45,39.67-46.45,35.71,0,39.55,5.84,18.44-13.33,31.32-29.41,16.12-20.13,34.14,12.25,28.23,29.41h26.22c-2.72-46.96,40.34-46.9,35.71,0h26.23c-4.48-47.17,37.93-46.49,35.71,0h23.84c-2.22-46.49,40.19-47.17,35.71,0h26.23c-4.63-46.9,38.43-46.96,35.71,0h23.84c-2.72-46.96,40.34-46.9,35.71,0h26.23c-3.18-46.74,39.37-46.32,35.71,0h26.23c-5.95-46.88,39.21-47.1,33.32,0h26.23c-3.2-46.42,39.81-47.4,35.71,0l20.1.07c2.63-12.15,3.12-21.35,13.37-29.75,2.47-2.02,8.75-3.32,9.11-3.9,1.75-2.78,0-10.62-3.27-11.63Z"/>
  <path class="cls-1" d="M364.97,1072.19c-4.57-148.52,134.89-255.73,278.68-215.26,92.56,26.05,160.39,117.91,154.34,214.59l-2.44,4.7c-66.11,48.82-136.18,92.77-210.95,127.26-78.68-32.89-150.83-81.07-219.62-131.29ZM522.06,1077.11c43.32,1.91,83.13-83.94,34.92-97.94-52.58-15.26-58.6,73.07-1.99,57.86-4.68,16.76-22.74,25.93-38.09,30.94l5.17,9.14ZM490.69,979.93c-16.02-2.9-26.02,12.54-39.45,18.99l4.82,8.98,17.96-8.95v61.84l-15.65,2.2-.8,8.24,3.35,3.83h44.07v-14.28s-14.29.01-14.29.01v-80.87ZM640.75,979.93h-41.68c-8.01,13.99-3.02,34.75-8.34,49.92,14.74-2.12,39.61-6.59,38,15.36-1.35,18.49-22.93,22.52-38.01,20.35-3.04,17.22,15.99,12.53,27.25,9.36,40.06-11.28,36.56-63.95-8.2-59.3v-21.43s28.75-1.02,28.75-1.02l2.23-13.23ZM709.83,979.93h-41.68c-2.35,1.5-3.11,3.26-3.58,5.94-.93,5.35-3.93,42.45-2.37,44.01,52.57-13.73,44.13,43.35-2.38,35.68-.78,19.33,26.84,11.2,37.41,5.25,31.87-17.94,18.38-60.65-18.38-55.19v-21.43s28.75-1.02,28.75-1.02l2.23-13.23Z"/>
  <path class="cls-1" d="M378.73,582.73c46.51,6.51,86.14-28.87,80.98-76.12l33.13-.22c17.19-101.29,161.62-100.74,181.12-.81l31.12,1.03c-5.83,47.22,35.07,82.41,80.98,76.12v35.68h67.89c8.82,0,22.79,17.44,22.71,27.4-.26,30.74-55.61,27.4-38.19-5.99h-73.84v-35.68c-41.79-4.92-73.83-34.22-81.3-75.8l-30.66-.3c8.42-70.37-84.28-104.67-126.17-48.71-12.36,16.51-10.82,28.81-14.2,47.66l-31.28,2.07c-7.19,40.32-39.74,71.57-80.83,75.08v35.68h-76.22c14.54,39.22-47.01,35.52-36.97-2.46,1.72-6.5,13.03-18.95,19.11-18.95h72.65v-35.68Z"/>
  <path class="cls-1" d="M607.66,542.03l30.72.25.25,30.68c19.05,1.95,28.67,23.37,18.84,39.56-4.25,7-17.82,11.73-18.8,14.52l-.29,27.06-27.03.36c-4.01,1.32-6.75,11.92-12.23,16.33-15.86,12.74-39.93,3.94-42-16.44l-30.72-.25-.25-30.68c-30.58-4.97-27.47-43.77.36-51.8l-.11-29.34,29.38.11c8.04-27.78,46.9-30.9,51.87-.36Z"/>
  <polygon class="cls-1" points="347.77 247.37 352.53 290.18 302.51 290.18 302.51 247.37 347.77 247.37"/>
  <path class="cls-1" d="M352.53,313.96c-2.35,13.84-.34,30.85-8.34,42.81h-38.11l-3.57-3.57v-39.24h50.02Z"/>
  <path class="cls-1" d="M281.07,247.37v42.81h-47.64c-1.01-14.5,1.48-28.78,4.76-42.81h42.88Z"/>
  <path class="cls-1" d="M281.07,313.96v42.81h-42.88c-2.02-14.24-6.08-28.26-4.76-42.81h47.64Z"/>
  <path class="cls-1" d="M419.23,313.96c1.89,1.87-6.77,38.87-13.1,42.81h-36.92l4.76-42.81h45.26Z"/>
  <path class="cls-1" d="M419.23,290.18h-45.26l-4.76-42.81h36.92c8.52,11.76,12.46,28.49,13.1,42.81Z"/>
  <polygon class="cls-1" points="214.38 247.37 209.61 290.18 164.36 290.18 176.27 247.37 214.38 247.37"/>
  <path class="cls-1" d="M209.61,313.96l4.76,42.81h-38.11c-3.45-14.18-10.76-27.77-9.53-42.81h42.88Z"/>
  <path class="cls-1" d="M340.62,225.96h-34.54l-3.57-3.57v-44c19.8,4.75,31.28,29.64,38.11,47.57Z"/>
  <path class="cls-1" d="M340.62,378.18c-9.39,17.8-16.7,40.97-38.11,47.57v-47.57h38.11Z"/>
  <path class="cls-1" d="M281.07,178.39v47.57h-35.73c4.88-18.05,16.7-41.34,35.73-47.57Z"/>
  <path class="cls-1" d="M281.07,378.18v47.57c-18.22-9.03-29.45-28.71-35.73-47.57h35.73Z"/>
  <path class="cls-1" d="M393.01,225.95l-28.67-1.08-16.56-36.95c2.06-2.11,22.04,11.96,24.95,14.31,2.75,2.22,23.07,21.25,20.29,23.72Z"/>
  <path class="cls-1" d="M238.2,187.93l-17,37.71-30.64.3c1.94-9.02,42.68-42.09,47.64-38.01Z"/>
  <path class="cls-1" d="M393.03,378.21c-.59,10.02-43.34,41.5-47.64,38.01l16.91-37.79,30.73-.22Z"/>
  <path class="cls-1" d="M221.13,378.58l17.06,37.63c-19.72-6.87-33.5-22.46-47.63-36.85l30.56-.78Z"/>
  <path class="cls-1" d="M544.82,989.83c19.08-2.88,26.26,38.07,1.77,37.41-19.11-.52-20.56-32.98-1.77-37.41Z"/>
</svg>