<?xml version="1.0" encoding="UTF-8"?>
<svg id="_レイヤー_1" data-name="レイヤー 1" xmlns="http://www.w3.org/2000/svg" viewBox="0 0 319.36 187.03">
  <defs>
    <style>
      .cls-1 {
        fill: #040000;
      }
    </style>
  </defs>
  <g id="Layer_1-2" data-name="Layer 1-2">
    <g>
      <g>
        <path class="cls-1" d="M280.24,145.74c-3.68,2.17-8.13,4.44-12.39,4.97-4.23.52-5.6-4.53-4.32-7.52,1.31-3.06,4.54-4.64,6.56-7.14.47-.58.85-1.23,1.18-1.91-1.18.48-2.38.92-3.57,1.32-1.87.63-9.02,2.38-11.61-1.02-2.25-2.95.29-8.12.49-8.52-1.43.2-3.42.4-5.8.42-3.51.02-8.8,0-14.73-2.52-3.95-1.68-7.12-3.91-9.49-6.68-2.38-2.77-4.08-5.81-5.09-9.12-1.02-3.3-1.53-6.58-1.53-9.82s.51-6.4,1.53-9.68c1.02-3.27,2.72-6.29,5.09-9.07,2.38-2.77,5.54-5,9.49-6.69,3.95-1.68,8.86-2.52,14.73-2.52,4.32,0,8.51.69,12.55,2.06,4.04,1.37,7.18,2.74,9.4,4.11l15.28-30.67c-2.96-2.49-8-5.02-15.1-7.57-7.1-2.56-15.47-3.83-25.1-3.83-9.02,0-17.55,1.59-25.61,4.77s-15.18,7.65-21.35,13.42c-6.18,5.77-11.02,12.56-14.54,20.38-3.52,7.82-5.28,16.35-5.28,25.57s1.76,17.72,5.28,25.48,8.38,14.51,14.59,20.24c6.21,5.74,13.32,10.18,21.35,13.32,8.03,3.15,16.55,4.72,25.56,4.72,9.63,0,18-1.28,25.1-3.83,7.1-2.56,12.13-5.08,15.1-7.57l-4.27-8.57c-.81,1.35-1.91,2.53-3.51,3.48h.01Z"/>
        <path class="cls-1" d="M302.62,128.04c-5.46,1.37-10.2,4.4-14.65,7.75-6.34,4.77-13.95,11.32-22.15,12.42,1.96-1.95,3.64-4.18,5.16-6.59,4.38-6.98,4.65-17.18,4.65-17.18,0,.03-6.65,8.12-10.73,9.31-2.26.66-5.65,1.08-7.37-.9-1.34-1.55-1.05-3.25.35-4.51.9-.8,5.25-2.41,5.25-2.41-2.23-.41-5.24-.42-7.05.03-2.33.58-4.41,1.77-6.33,3.17-8.15,5.93-9.22,10.59-14.06,13.42-2.62,1.53-7.02,3.01-14.38,1.56,3.67,1.3,4.19,2.17,4.15,2.67-.13,1.66-6.76,2.56-7.06,2.6-3.89.51-7.48.07-7.67.94-.04.2.1.46.25.71.41.71,1.09,1.02,1.29,1.12.97.46,4.86,2.56,10.24,5.45,16.92,4.97,29.86,3.58,37.37,2.01,12.35-2.59,26.23-3.21,36.61-16.75,10.09-13.16,22.87-14.24,22.87-14.24-5.41-1.72-11.22-1.98-16.73-.59h0Z"/>
        <path class="cls-1" d="M146.53,37.04l-19.01,95.25c-.08.95-.13,2.99.96,5.18.65,1.3,1.49,2.2,2.1,2.76,4.39,3.19,9.13,6.44,14.23,9.68,4.61,2.93,9.11,5.59,13.44,8l24.12-120.87s-35.84,0-35.84,0Z"/>
      </g>
      <g>
        <path class="cls-1" d="M18.8,168.55h3.57c.9,0,1.71.13,2.43.4.72.27,1.3.7,1.74,1.29s.65,1.37.65,2.33-.22,1.76-.65,2.38c-.43.62-1.01,1.08-1.74,1.37-.72.29-1.53.44-2.43.44h-2.34v5.65h-1.23v-13.86h0ZM20.04,175.71h2.01c.71,0,1.35-.1,1.93-.29.58-.2,1.05-.52,1.4-.98.35-.46.52-1.07.52-1.84s-.17-1.38-.52-1.81-.81-.74-1.4-.91c-.58-.18-1.22-.27-1.93-.27h-2.01v6.11h0Z"/>
        <path class="cls-1" d="M32.18,182.41h-1.23v-8.62h1.23v1.55h-.05c.03-.18.16-.42.4-.7s.56-.54.98-.77c.41-.23.9-.34,1.46-.34.43,0,.79.05,1.1.15.3.1.52.21.63.31l-.55,1.02c-.1-.09-.27-.18-.53-.27s-.58-.14-.94-.14c-.51,0-.95.16-1.32.48-.37.32-.66.71-.86,1.15s-.3.85-.3,1.22v4.95h-.02Z"/>
        <path class="cls-1" d="M43.3,182.66c-.9,0-1.71-.2-2.41-.6-.7-.4-1.25-.95-1.65-1.63-.4-.69-.6-1.45-.6-2.3s.2-1.62.6-2.32.95-1.25,1.65-1.66,1.5-.61,2.41-.61,1.7.21,2.4.61c.69.41,1.24.96,1.64,1.66.4.7.6,1.47.6,2.32s-.2,1.61-.6,2.3c-.4.69-.94,1.23-1.64,1.63-.7.4-1.49.6-2.4.6ZM43.3,181.58c.68,0,1.28-.15,1.79-.45.51-.3.91-.71,1.19-1.24.28-.52.42-1.11.42-1.76s-.14-1.25-.42-1.78-.68-.95-1.19-1.26-1.11-.47-1.79-.47-1.29.16-1.81.47c-.51.31-.92.73-1.2,1.26-.29.53-.43,1.12-.43,1.78s.14,1.24.43,1.76c.29.53.69.94,1.2,1.24.51.3,1.12.45,1.81.45Z"/>
        <path class="cls-1" d="M55.39,181.61c.65,0,1.16-.1,1.55-.29s.63-.33.72-.4l.66.92c-.06.04-.22.13-.5.27-.27.14-.62.26-1.05.38-.43.12-.92.17-1.46.17-.73,0-1.43-.17-2.11-.51s-1.23-.85-1.67-1.53-.66-1.52-.66-2.52.22-1.85.66-2.53.99-1.18,1.67-1.52c.68-.34,1.38-.51,2.11-.51.54,0,1.02.06,1.43.19s.75.27,1.01.42.43.27.5.34l-.65.91c-.07-.06-.19-.15-.37-.28s-.42-.25-.73-.36-.68-.17-1.11-.17c-.52,0-1.04.14-1.54.41-.51.27-.92.67-1.25,1.19s-.49,1.16-.49,1.91.16,1.39.49,1.91.74.92,1.25,1.2c.51.27,1.02.41,1.54.41h0Z"/>
        <path class="cls-1" d="M62.23,178.24c0,.6.13,1.17.38,1.69.25.53.62.95,1.12,1.27.5.32,1.13.48,1.89.48.62,0,1.13-.1,1.55-.29s.75-.42.99-.67.42-.48.52-.69l.78.73c-.27.4-.59.74-.94,1.02-.36.28-.78.5-1.26.65s-1.05.22-1.71.22c-.96,0-1.78-.21-2.46-.61-.68-.41-1.2-.97-1.55-1.67s-.53-1.5-.53-2.38.18-1.6.53-2.27.86-1.2,1.53-1.6c.67-.39,1.47-.59,2.41-.59.85,0,1.59.18,2.22.54.63.36,1.12.85,1.47,1.49.35.63.52,1.37.52,2.21v.24c0,.1,0,.17-.02.23h-7.44ZM68.41,177.24c0-.38-.11-.78-.29-1.2-.19-.42-.49-.78-.92-1.08-.42-.3-1-.45-1.74-.45s-1.37.15-1.82.44c-.45.29-.78.65-.99,1.07-.21.42-.33.83-.37,1.23h6.13Z"/>
        <path class="cls-1" d="M76.25,173.54c.42,0,.81.04,1.19.13.37.09.7.2.98.33s.49.25.63.35l-.61.83c-.15-.14-.42-.29-.8-.45-.38-.16-.81-.24-1.29-.24-.59,0-1.09.12-1.5.35-.42.23-.62.57-.62,1.01s.21.77.63,1.02.97.46,1.65.62c.52.13,1,.28,1.43.47s.77.45,1.03.77.39.76.39,1.3c0,.46-.1.86-.3,1.19-.2.33-.47.6-.81.81s-.73.37-1.16.47-.89.16-1.37.16-.95-.05-1.37-.16c-.42-.11-.78-.23-1.08-.38-.3-.15-.52-.28-.68-.41l.63-.93c.19.19.51.38.94.58.44.2.95.3,1.54.3.68,0,1.25-.15,1.69-.45.45-.3.67-.7.67-1.19,0-.36-.11-.64-.32-.86s-.49-.39-.84-.52-.71-.24-1.1-.33c-.38-.09-.73-.2-1.08-.33s-.64-.29-.91-.49-.47-.43-.62-.71-.23-.6-.23-.97c0-.46.15-.86.45-1.2.3-.34.7-.6,1.21-.79.5-.19,1.05-.28,1.64-.28h0Z"/>
        <path class="cls-1" d="M86.05,173.54c.42,0,.81.04,1.19.13.37.09.7.2.98.33s.49.25.63.35l-.61.83c-.15-.14-.42-.29-.8-.45-.38-.16-.81-.24-1.29-.24-.59,0-1.09.12-1.5.35-.42.23-.62.57-.62,1.01s.21.77.63,1.02.97.46,1.65.62c.52.13,1,.28,1.43.47s.77.45,1.03.77.39.76.39,1.3c0,.46-.1.86-.3,1.19-.2.33-.47.6-.81.81s-.73.37-1.16.47-.89.16-1.37.16-.95-.05-1.37-.16c-.42-.11-.78-.23-1.08-.38-.3-.15-.52-.28-.68-.41l.63-.93c.19.19.51.38.94.58.44.2.95.3,1.54.3.68,0,1.25-.15,1.69-.45.45-.3.67-.7.67-1.19,0-.36-.11-.64-.32-.86s-.49-.39-.84-.52-.71-.24-1.1-.33c-.38-.09-.73-.2-1.08-.33s-.64-.29-.91-.49-.47-.43-.62-.71-.23-.6-.23-.97c0-.46.15-.86.45-1.2.3-.34.7-.6,1.21-.79.5-.19,1.05-.28,1.64-.28h0Z"/>
        <path class="cls-1" d="M106.27,168.55h1.25v13.86h-1.25v-13.86Z"/>
        <path class="cls-1" d="M116.5,173.54c.57,0,1.13.12,1.68.35.54.23.99.61,1.34,1.11.35.51.53,1.16.53,1.97v5.44h-1.28v-5.16c0-.96-.24-1.65-.71-2.07s-1.07-.63-1.81-.63c-.49,0-.95.13-1.41.4-.45.27-.82.63-1.11,1.09s-.44.98-.44,1.55v4.82h-1.26v-8.62h1.26v1.66c.05-.25.23-.52.52-.81s.68-.55,1.15-.77.98-.33,1.53-.33h.01Z"/>
        <path class="cls-1" d="M128.56,173.54c.57,0,1.13.12,1.68.35.54.23.99.61,1.34,1.11.35.51.53,1.16.53,1.97v5.44h-1.28v-5.16c0-.96-.24-1.65-.71-2.07s-1.07-.63-1.81-.63c-.49,0-.95.13-1.41.4-.45.27-.82.63-1.11,1.09s-.44.98-.44,1.55v4.82h-1.26v-8.62h1.26v1.66c.05-.25.23-.52.52-.81s.68-.55,1.15-.77.98-.33,1.53-.33h.01Z"/>
        <path class="cls-1" d="M140.1,182.66c-.9,0-1.71-.2-2.41-.6-.7-.4-1.25-.95-1.65-1.63-.4-.69-.6-1.45-.6-2.3s.2-1.62.6-2.32.95-1.25,1.65-1.66,1.5-.61,2.41-.61,1.7.21,2.4.61c.69.41,1.24.96,1.64,1.66s.6,1.47.6,2.32-.2,1.61-.6,2.3c-.4.69-.94,1.23-1.64,1.63-.7.4-1.49.6-2.4.6ZM140.1,181.58c.68,0,1.28-.15,1.79-.45s.91-.71,1.19-1.24c.28-.52.42-1.11.42-1.76s-.14-1.25-.42-1.78-.68-.95-1.19-1.26c-.51-.31-1.11-.47-1.79-.47s-1.29.16-1.81.47c-.51.31-.92.73-1.2,1.26-.29.53-.43,1.12-.43,1.78s.14,1.24.43,1.76c.29.53.69.94,1.2,1.24s1.12.45,1.81.45Z"/>
        <path class="cls-1" d="M147.28,173.79h1.34l3.32,7.49,3.31-7.49h1.34l-3.91,8.62h-1.48l-3.92-8.62Z"/>
        <path class="cls-1" d="M167.23,182.41v-1.81c-.05.19-.22.45-.51.78s-.69.62-1.2.89c-.51.26-1.12.39-1.81.39-.82,0-1.57-.18-2.25-.54s-1.24-.88-1.65-1.56c-.42-.68-.62-1.5-.62-2.45s.21-1.77.62-2.45c.42-.68.97-1.21,1.65-1.57.69-.36,1.44-.55,2.25-.55.7,0,1.3.12,1.81.37s.91.53,1.21.86c.3.32.46.59.5.81v-1.79h1.23v8.62h-1.23ZM160.41,178.1c0,.73.17,1.35.5,1.88s.76.93,1.29,1.21c.53.28,1.08.42,1.66.42.64,0,1.21-.14,1.71-.43s.89-.69,1.18-1.22.44-1.14.44-1.86-.15-1.33-.44-1.86c-.29-.52-.69-.93-1.18-1.22-.5-.29-1.07-.44-1.71-.44-.58,0-1.13.14-1.66.42s-.95.69-1.29,1.21c-.33.52-.5,1.15-.5,1.88h0Z"/>
        <path class="cls-1" d="M171.67,173.79h1.89v-3.54h1.25v3.54h2.47v1.08h-2.47v5.11c0,.57.11.98.33,1.23s.5.37.83.37.55-.05.72-.16c.16-.1.26-.17.29-.21l.58.91s-.14.1-.3.18c-.15.09-.36.17-.61.24s-.55.11-.9.11c-.61,0-1.13-.19-1.55-.56-.42-.38-.63-.98-.63-1.8v-5.43h-1.89v-1.08h0Z"/>
        <path class="cls-1" d="M181.53,170.29c-.26,0-.49-.09-.68-.27-.19-.18-.28-.39-.28-.65s.09-.48.29-.66c.19-.18.42-.27.67-.27.18,0,.34.04.49.13s.27.19.36.33.14.29.14.47c0,.25-.1.47-.29.65-.2.18-.43.27-.7.27h0ZM180.89,182.41v-8.62h1.25v8.62h-1.25Z"/>
        <path class="cls-1" d="M190.58,182.66c-.9,0-1.71-.2-2.41-.6-.7-.4-1.25-.95-1.65-1.63-.4-.69-.6-1.45-.6-2.3s.2-1.62.6-2.32.95-1.25,1.65-1.66,1.5-.61,2.41-.61,1.7.21,2.4.61c.69.41,1.24.96,1.64,1.66s.6,1.47.6,2.32-.2,1.61-.6,2.3c-.4.69-.94,1.23-1.64,1.63-.7.4-1.49.6-2.4.6ZM190.58,181.58c.68,0,1.28-.15,1.79-.45s.91-.71,1.19-1.24c.28-.52.42-1.11.42-1.76s-.14-1.25-.42-1.78-.68-.95-1.19-1.26c-.51-.31-1.11-.47-1.79-.47s-1.29.16-1.81.47c-.51.31-.92.73-1.2,1.26-.29.53-.43,1.12-.43,1.78s.14,1.24.43,1.76c.29.53.69.94,1.2,1.24s1.12.45,1.81.45Z"/>
        <path class="cls-1" d="M203.22,173.54c.57,0,1.13.12,1.68.35.54.23.99.61,1.34,1.11.35.51.53,1.16.53,1.97v5.44h-1.28v-5.16c0-.96-.24-1.65-.71-2.07s-1.07-.63-1.81-.63c-.49,0-.95.13-1.41.4-.45.27-.82.63-1.11,1.09s-.44.98-.44,1.55v4.82h-1.26v-8.62h1.26v1.66c.05-.25.23-.52.52-.81s.68-.55,1.15-.77.98-.33,1.53-.33h.01Z"/>
        <path class="cls-1" d="M230.84,181.51c1.01,0,1.88-.13,2.59-.39.71-.26,1.21-.51,1.5-.76l.54,1.02c-.32.28-.88.56-1.69.85s-1.79.43-2.94.43c-1.07,0-2.06-.18-2.97-.55-.91-.37-1.7-.88-2.38-1.53-.68-.66-1.2-1.41-1.58-2.28-.38-.86-.56-1.8-.56-2.8s.19-1.94.56-2.81.89-1.64,1.57-2.29c.68-.66,1.47-1.17,2.38-1.54s1.9-.56,2.98-.56c1.15,0,2.13.14,2.94.43s1.38.57,1.69.85l-.54,1.02c-.29-.25-.8-.5-1.5-.76-.71-.26-1.57-.39-2.59-.39-.85,0-1.65.15-2.39.44-.74.29-1.4.7-1.96,1.23-.57.53-1.01,1.17-1.33,1.91s-.48,1.55-.48,2.44.16,1.71.48,2.46c.32.74.76,1.38,1.33,1.91s1.22.94,1.96,1.23,1.54.44,2.39.44h0Z"/>
        <path class="cls-1" d="M243.59,173.54c.57,0,1.12.12,1.67.35.54.23.99.61,1.34,1.11.35.51.53,1.16.53,1.97v5.44h-1.28v-5.16c0-.96-.23-1.65-.7-2.07s-1.06-.63-1.79-.63c-.49,0-.96.13-1.42.4-.45.27-.83.63-1.12,1.09s-.44.98-.44,1.55v4.82h-1.28v-14.45h1.28v7.49c.05-.25.23-.52.52-.81s.68-.55,1.15-.77.98-.33,1.54-.33Z"/>
        <path class="cls-1" d="M258.61,182.41v-1.81c-.05.19-.22.45-.51.78s-.69.62-1.2.89c-.51.26-1.12.39-1.81.39-.82,0-1.57-.18-2.25-.54s-1.24-.88-1.65-1.56c-.42-.68-.62-1.5-.62-2.45s.21-1.77.62-2.45c.42-.68.97-1.21,1.65-1.57.69-.36,1.44-.55,2.25-.55.7,0,1.3.12,1.81.37s.91.53,1.21.86c.3.32.46.59.5.81v-1.79h1.23v8.62h-1.23ZM251.8,178.1c0,.73.17,1.35.5,1.88s.76.93,1.29,1.21c.53.28,1.08.42,1.66.42.64,0,1.21-.14,1.71-.43s.89-.69,1.18-1.22c.29-.53.44-1.14.44-1.86s-.15-1.33-.44-1.86c-.29-.52-.69-.93-1.18-1.22-.5-.29-1.07-.44-1.71-.44-.58,0-1.13.14-1.66.42s-.95.69-1.29,1.21c-.33.52-.5,1.15-.5,1.88h0Z"/>
        <path class="cls-1" d="M265.2,182.41h-1.28v-14.45h1.28v14.45Z"/>
        <path class="cls-1" d="M270.81,182.41h-1.28v-14.45h1.28v14.45Z"/>
        <path class="cls-1" d="M275.61,178.24c0,.6.13,1.17.38,1.69.25.53.62.95,1.12,1.27s1.13.48,1.89.48c.62,0,1.13-.1,1.55-.29s.75-.42.99-.67.42-.48.52-.69l.78.73c-.27.4-.59.74-.94,1.02-.36.28-.78.5-1.26.65s-1.05.22-1.71.22c-.96,0-1.78-.21-2.46-.61-.68-.41-1.2-.97-1.55-1.67s-.53-1.5-.53-2.38.18-1.6.53-2.27.86-1.2,1.53-1.6c.67-.39,1.47-.59,2.41-.59.85,0,1.59.18,2.22.54s1.12.85,1.47,1.49c.35.63.52,1.37.52,2.21v.24c0,.1,0,.17-.02.23h-7.44ZM281.8,177.24c0-.38-.11-.78-.29-1.2-.19-.42-.49-.78-.92-1.08-.42-.3-1-.45-1.74-.45s-1.37.15-1.82.44c-.45.29-.78.65-.99,1.07-.21.42-.33.83-.37,1.23h6.13Z"/>
        <path class="cls-1" d="M291.08,173.54c.57,0,1.13.12,1.68.35.54.23.99.61,1.34,1.11.35.51.53,1.16.53,1.97v5.44h-1.28v-5.16c0-.96-.24-1.65-.71-2.07s-1.07-.63-1.81-.63c-.49,0-.95.13-1.41.4-.45.27-.82.63-1.11,1.09s-.44.98-.44,1.55v4.82h-1.26v-8.62h1.26v1.66c.05-.25.23-.52.52-.81s.68-.55,1.15-.77.98-.33,1.53-.33h.01Z"/>
        <path class="cls-1" d="M306.01,182.41v-1.81c-.05.19-.22.45-.51.78s-.69.62-1.2.89c-.51.26-1.12.39-1.81.39-.82,0-1.57-.18-2.25-.54s-1.24-.88-1.65-1.56c-.42-.68-.62-1.5-.62-2.45s.21-1.77.62-2.45c.42-.68.97-1.21,1.65-1.57.69-.36,1.44-.55,2.25-.55.7,0,1.3.12,1.81.37s.91.53,1.21.86c.3.32.46.59.5.81v-1.79h1.23v8.62h-1.23ZM302.75,187.01c-.75,0-1.4-.08-1.96-.23s-1.03-.36-1.41-.61c-.38-.26-.67-.53-.88-.82l.93-.78c.13.17.32.37.55.59s.57.4,1,.56,1.01.24,1.73.24,1.32-.15,1.81-.46c.49-.31.86-.72,1.11-1.23s.38-1.07.38-1.69v-.3h1.22v.4c0,.94-.2,1.73-.6,2.38s-.94,1.14-1.62,1.47-1.44.5-2.27.5v-.02ZM299.19,178.1c0,.73.17,1.35.5,1.88s.76.93,1.29,1.21c.53.28,1.08.42,1.66.42.64,0,1.21-.14,1.71-.43s.89-.69,1.18-1.22c.29-.53.44-1.14.44-1.86s-.15-1.33-.44-1.86c-.29-.52-.69-.93-1.18-1.22-.5-.29-1.07-.44-1.71-.44-.58,0-1.13.14-1.66.42s-.95.69-1.29,1.21c-.33.52-.5,1.15-.5,1.88h0Z"/>
        <path class="cls-1" d="M311.88,178.24c0,.6.13,1.17.38,1.69.25.53.62.95,1.12,1.27s1.13.48,1.89.48c.62,0,1.13-.1,1.55-.29s.75-.42.99-.67.42-.48.52-.69l.78.73c-.27.4-.59.74-.94,1.02-.36.28-.78.5-1.26.65s-1.05.22-1.71.22c-.96,0-1.78-.21-2.46-.61-.68-.41-1.2-.97-1.55-1.67s-.53-1.5-.53-2.38.18-1.6.53-2.27.86-1.2,1.53-1.6c.67-.39,1.47-.59,2.41-.59.85,0,1.59.18,2.22.54s1.12.85,1.47,1.49c.35.63.52,1.37.52,2.21v.24c0,.1,0,.17-.02.23h-7.44ZM318.07,177.24c0-.38-.11-.78-.29-1.2-.19-.42-.49-.78-.92-1.08-.42-.3-1-.45-1.74-.45s-1.37.15-1.82.44c-.45.29-.78.65-.99,1.07-.21.42-.33.83-.37,1.23h6.13Z"/>
      </g>
      <path class="cls-1" d="M63.15,38.53c3.16-1.04,6.75-1.08,10.03-.56,2.41.38,4.52,1.01,6.24,2.49,1.96-.46,3.8-.63,5.56-.54-12.2-8.95-23.55-19.21-29.64-32.87-2.14,10.99-.15,22.71,5.38,32.42.79-.32,1.56-.66,2.43-.95h0Z"/>
      <path class="cls-1" d="M52.67,46.23c.36-2.45,1.49-4.52,4.52-5.5,1.62-.52,3.3-.45,4.96-.71-15.46-7.84-27.1-22.99-30.45-40.02-4.23,16.1,1.27,33.48,13.57,44.69-14.02-6.64-30.73-7.35-45.27-1.94,8.84,1.32,36.58,16.1,43.14,18.58.96.36,1.91.72,2.86,1.1.42-6.05,2.35-12.27,6.66-16.2h.01Z"/>
      <path class="cls-1" d="M128.23,53.57c-2.68-5.71-6.96-10.03-12.83-12.95-5.88-2.92-12.82-4.38-20.82-4.38h-31.91c-.23,1.21-.86,2.33-1.88,3.06-.03.03-.08.06-.12.09-.71.48-1.62.77-2.72.77-1.32,0-2.37-.42-3.15-1.09-1.16-.6-1.93-1.64-2.29-2.84h-9.43l-.39,1.99c.13.08.25.17.38.26.45-.14.95-.21,1.49-.21,6.45,0,6.44,10,0,10-1.12,0-2.05-.31-2.78-.82-.3.09-.63.16-.97.19l-2.32,11.64-19.69,98.63h36.04l8.15-40.85c-2.14-2.85-4.72-5.59-7.26-8.01,4.95,1.53,9.92,3.07,14.54,5.42.14.07.27.14.4.21h8.25c8.01.01,15.57-1.61,22.67-4.83,7.1-3.23,13.15-7.83,18.17-13.83,5.01-5.99,8.34-13.13,10-21.43,1.65-8.29,1.14-15.3-1.53-21.02h0ZM115.12,81.32c-1.94,1.19-3.94,2.17-5.87,3.36,1.34-.9,1.56-3.08.42-4.23-.73.34-1.46.69-2.19,1.03.6-.49.89-1.41.71-2.19-.24-1.05-1.08-1.86-2-2.43-2.22-1.38-4.97-1.65-7.59-1.51s-5.06.39-7.68.44c1.86,6.13,7.9,10.73,14.29,10.9-1.53,3.05-4.45,5.37-7.77,6.16-1.82.44-3.61.13-5.26-.75.9-.08,1.82-.17,2.61-.6.8-.42,1.44-1.27,1.34-2.16-.12-1.03-1.11-1.71-2.02-2.19-5.26-2.79-11.38-4.25-17.29-3.56,2.61-.39,5.02-1.92,6.5-4.1-3.07.59-6.38-.13-8.93-1.95.9.26,1.86.52,2.77.3.91-.22,1.74-1.09,1.56-2.01-.23-1.22-1.84-1.53-3.08-1.42-6.5.62-12.25,6-13.3,12.45-.65,3.97.34,8.07,2.07,11.71,1.73,3.63,4.16,7.26,6.59,10.48-4.64-2.31-9.3-4.63-13.49-7.69-4.18-3.05-7.91-6.9-10.08-11.6-2.18-4.7-2.68-10.32-.62-15.07,2.37-5.47,7.62-9.04,12.65-12.24.53-.33,1.08-.45,1.6-.81-3.44-1.91-7.22-3.19-11.11-3.77,6.39-2.38,13.74-2.07,19.91.85-5.41-4.93-7.83-12.57-5.97-19.65,1.6,8.14,7.52,15.31,15.21,18.43-2.97-4.48-4.1-10.14-3.07-15.42,3.32,7.43,10.17,12.58,16.9,17.18,2.71,1.85,5.43,3.71,8.14,5.56.79.54,1.6,1.1,2.1,1.91.5.8.62,1.93.02,2.67-.64.79-1.87.85-2.81.44-.93-.4-1.65-1.17-2.39-1.86-.58-.56-1.21-1.09-1.98-1.33-.77-.23-1.7-.09-2.21.53-.82,1.03-.02,2.63,1.13,3.28,2.11,1.2,4.75.42,7.16.68,1.71.19,3.31.91,4.88,1.61,2.52,1.14,5.04,2.28,7.56,3.42,1.23.56,2.67,1.43,2.59,2.78-.06,1.08-1.09,1.81-2,2.37h0Z"/>
    </g>
  </g>
</svg>