<?xml version="1.0" encoding="UTF-8"?>
<svg id="_レイヤー_1" data-name="レイヤー 1" xmlns="http://www.w3.org/2000/svg" viewBox="0 0 6964.39 1811">
  <path d="M2293.59,1661.07c-1.67-62.19,2.16-124.8.07-186.97-2.44-72.61-7.3-147.01-12.1-219.77-6-90.8-17.47-181.05-30.99-270.89-4.69.1-34.62,33.99-40,39.97-94.53,105.19-184.78,220.06-272.85,330.92-77.66,97.76-150.66,199.96-234.03,292.75-.41-4.38-1.77-8.47-2.11-12.91-4.82-63.98,1.14-135.2-1.83-200.05-8.38-182.72-16.13-369.41-36.09-551.59-3.99-36.36-12.03-128.99-39.96-151.95-32.2-26.47-74.82,6.46-107.98,15.01.99-9.14-15.89-26.5-11.1-34.02l243.03-137.9c10.33,60.82,20.56,121.81,27.76,183.15,20.7,176.34,27.16,356.11,30.33,533.37.96,53.67-2.01,107.47,1.94,160.99,28.86-27.29,54.45-58.45,79.92-89,85.58-102.66,163.61-211.58,250.98-312.8,29-33.6,69.83-69.76,93.83-106.09,6.98-10.56,12.64-22.95,1.86-33.46-64.77,2.55-132.58,9.72-188.48,44.81-61.14,38.37-95.47,109.26-96.16,180.72-4.03,4.09-13.79-10.44-15.63-13.34-25.05-39.36-5.53-88.59,16.81-124.41,43.86-70.3,141.22-137.15,220.78-159.1,7.94-2.19,40.07-6,43.15-10.96l.77-2.85c-82.18-267.18-298.69-480.2-573.8-541.88-379.61-85.1-809.96,79.38-899.26,486.37-71.77,327.06,91.45,676.13,423.32,770.94,91.02,26,186.5,28.88,280.07,15.86l3.8,19.05c-22.08,3.98-43.55,10.95-65.53,15.44-386.33,79.07-739.31-156.76-758.35-559.98-29.97-634.91,647.65-953.92,1195.43-781.17,270.57,85.33,445.86,306.48,515.49,576.11l4.86,2.09c2.6-5.93,8.64-13.23,13.01-18.01,14.48-15.83,30.06-31.48,44.97-47,235.77-245.36,582.29-594.2,950.99-572.71,142.07,8.28,240.77,109.45,224.63,254.69-29.83,268.39-385.39,422.2-616.71,468.93-183.2,255.27-393.42,490.18-619.8,707.71-10.88,10.46-28.1,28.55-39.03,36.94-2.01,1.54-2.54,3.88-6,2.98ZM2843.5,655.65v-33.98h255.96c-10.87,54.04-33.03,107.53-58.95,155.95-8.7,16.26-26.09,38.13-31.92,54.04-.99,2.69-1.56,5-1.1,7.87,183.41-28.23,412.84-109.56,456.94-313.79,56.61-262.14-207.51-286.18-394-227.93-275.07,85.92-479.25,326.86-676.92,522.68-10.23,18.42,7.49,12.06,19.04,13.08,93.37,8.23,178.35,12.14,272.06,13.89,4.73.09,9.11,2.09,13.83,2.16h213.72c22.29-37.43,56.09-111.02,40.27-153.94-8.43-22.88-47.77-35.71-70.19-37.78-12.93-1.19-26.22,1.62-38.74-2.26ZM2877.49,921.52c-44.33,1.31-88.7,1.14-133.06,1.9-57.64.98-114.09,1.59-171.81,0-29.34-.81-58.72-.57-88.05-1.94l-131-11.95c18.01,95.64,34.27,191.59,41.98,288.83,6.28,79.24,7.18,158.38,3.93,237.93l4.09,60.89c4.63.69,7.51-1.57,10.98-4.01,20.75-14.54,50.35-47.74,69.05-66.9,62.02-63.55,121.43-131.43,177.87-199.99,79.13-96.12,153.76-196.75,216.02-304.76Z"/>
  <path d="M4079.31,1528.16c7.23,68.27,75.37,15,101.04-8.94,106.07-98.94,167.13-251.38,227.09-380.65l4.83-3.26c32.77,9.41,63.32,25.38,96.54,33.49,37.74,9.21,81.75,13.02,116.24-8.6,6.34-3.98,23.68-21.42,27.61-22.53,6.23-1.75,13.15,3.93,16.25,9-17.38,28.18-38.68,54.53-56.51,82.83-42.24,67.06-77.85,147.71-79.23,228.61-1.2,70.36,43.42,126.47,115.1,85.08,31.08-17.95,76.64-67.77,95.39-98.54,8.49-13.94,2.88-20.48,3.46-36.52,1.63-44.54,11.79-112.48,35.25-150.66,28.96-47.13,112.96-90.63,164.9-107.02,135.05-42.61,200.34,56.01,128.74,172.66-45.45,74.06-127.48,119.8-199,164.94-5.67,7.46,9,25.7,14.25,32.04,75.18,90.86,226.94,23.68,290.92-48.89,7.28-8.26,25.55-37.4,33.03-41.1,6.04-2.99,26.62,16.45,29.92,22.04-48.3,86.34-123.87,155.55-222.31,177.58-54.63,12.23-124.95,14.91-176.96-8.28-48.2-21.49-81.67-65.41-93.66-116.3-7.24.15-24.32,27.76-29.95,34.02-48.94,54.45-118.08,104.35-195.49,91.42-119.02-19.88-98.49-180.08-59.85-260.7l70.32-112.58c-40.47,7.41-83.43,6.09-122.95-6.08l-4.8,3.3c-23.77,46.69-49.14,92.39-77.37,136.53-49.84,77.94-160.46,236.23-259.72,244.1-71.18,5.64-88.58-23.53-95.04-89.04-.42-4.28,1.73-25.02-3.02-24.92-49.6,59.4-98.72,115.11-181.99,119.87-139.32,7.97-183.13-106.34-181.04-224.94.11-6.02,4.97-12.65-.91-16.86-21.92,19.35-32.36,47.3-50.14,69.88l-32.84-19.99c56.53-92.13,128.89-182.62,219.32-243.46,58.65-39.46,120.78-66,192.59-45.33,18.85,5.42,35.23,17.01,54.55,20.61l85.44-39.61v386.78ZM3968.62,1228.04c-26.71-29.62-79.76-39.42-117.34-31.77-162.75,33.14-185.56,366.55,3.04,352.84,55.27-4.02,99.43-57.72,121.46-104.47l-.33-204.44c-.31-4.43-3.99-9.02-6.83-12.17ZM4851.21,1449.21c3.41,3,41.31-18.19,47.32-21.65,52.79-30.37,116.69-80.96,124.08-145.82,9.96-87.35-72.19-114.63-132.48-60.46-61.36,55.13-62.2,154.54-38.93,227.93Z"/>
  <path d="M3233.18,1451.49c2.51,4.28-16.42,30.99-20.1,36.32-47.91,69.38-109.42,123.46-193.58,142.31-63.53,14.23-151.98,19.43-208.61-17.39-67.61-43.97-84.63-134.51-73.39-209.5l-52.23,65.7-4.26-.11c-8.28-7.13-35.03-15.54-27.17-28.3,79.26-101.72,199.51-306.55,348.73-297.21,44.36,2.78,86.87,29.55,90.98,76.96,10.96,126.47-136.22,214.72-229.08,270.88-7.86,12.59,25.4,43.63,35.59,50.46,65.21,43.71,148.6,23.82,210.06-16.82,36.9-24.39,67-57.33,94.6-91.42l28.48,18.13ZM2839.73,1450.97c5.06,3.51,32.83-12.02,39.11-15.41,50.63-27.38,116.57-79.46,129.66-138.24,24.64-110.67-91.14-132.01-148.63-52.62-41.51,57.33-42.21,141.21-20.14,206.28Z"/>
  <path d="M5942.64,1505.67c76.23-5.9,84.29,118.56,11.38,125.41-83.44,7.83-86.32-119.61-11.38-125.41Z"/>
  <path d="M5405.82,1616.4c-30.35-30.31-21.06-93.85,21.86-107.65,61.91-19.91,97.07,55.52,63.41,101.36-19.01,25.88-62.59,28.94-85.27,6.29Z"/>
  <path d="M5653.78,1616.4c-30.35-30.31-21.06-93.85,21.86-107.65,61.91-19.91,97.07,55.52,63.41,101.36-19.01,25.88-62.59,28.94-85.27,6.29Z"/>
</svg>